:FULLY-SPECIFIED
:FORCE-ALL-JOINTS-BE-3DOF
:DEGREES
1733
root -5.1333 15.5419 26.8557 -172.939 -17.5804 -171.395
lfemur -51.6851 25.0111 -26.2409
ltibia 61.5064 0 0
lfoot -18.057 35.7643 -0.11901
ltoes 1.73321 0 0
rfemur -21.324 -14.236 15.3444
rtibia 72.3347 0 0
rfoot -7.9978 -25.8221 -0.0983136
rtoes 14.4471 0 0
lowerback 15.127 1.3089 -4.88588
upperback -1.1575 1.12726 3.73587
thorax -9.93341 0.89432 6.63524
lowerneck 5.67722 -15.7547 -16.5243
upperneck -4.02764 -22.5468 23.4959
head 2.64283 -11.7574 8.81141
lclavicle 5.59937e-14 3.05353e-14 -1.81739e-30
lhumerus -43.6299 -51.7636 121.485
lradius 94.0701 0 0
lwrist 41.3192 0 0
lhand -3.64101 42.9654 0.0653466
lfingers 7.12502 0 0
lthumb 22.0973 71.71 0.0597871
rclavicle 5.59937e-14 3.05353e-14 -1.81739e-30
rhumerus 59.6997 34.9775 -16.6384
rradius 121.147 0 0
rwrist -18.2423 0 0
rhand 9.2682 -26.4379 0.0605996
rfingers 7.12502 0 0
rthumb 34.4164 -52.961 0.102363
1734
root -5.05466 15.5416 26.887 -172.939 -17.3947 -171.407
lfemur -51.5341 24.9146 -26.1101
ltibia 61.5519 0 0
lfoot -18.0342 35.6968 -0.123968
ltoes 1.57242 0 0
rfemur -21.3788 -14.2781 15.356
rtibia 72.2197 0 0
rfoot -8.00278 -25.7812 -0.095163
rtoes 14.3211 0 0
lowerback 15.125 1.32355 -4.87845
upperback -1.15327 1.1475 3.7243
thorax -9.92747 0.902971 6.61353
lowerneck 5.64827 -15.7278 -16.498
upperneck -3.9969 -22.5057 23.4512
head 2.64218 -11.7331 8.79772
lclavicle 5.54533e-14 3.03911e-14 -1.95465e-30
lhumerus -43.7198 -51.6323 121.415
lradius 94.1143 0 0
lwrist 41.2429 0 0
lhand -3.68418 42.9153 0.0692414
lfingers 7.12502 0 0
lthumb 22.0557 71.6637 0.0632571
rclavicle 5.54533e-14 3.03911e-14 -1.95465e-30
rhumerus 59.4875 34.878 -16.82
rradius 120.807 0 0
rwrist -18.1821 0 0
rhand 9.17802 -26.4731 0.0648017
rfingers 7.12502 0 0
rthumb 34.3302 -53.008 0.108504
1735
root -4.97603 15.5413 26.9184 -172.945 -17.2562 -171.427
lfemur -51.342 24.7862 -25.9564
ltibia 61.5981 0 0
lfoot -18.015 35.6243 -0.129027
ltoes 1.37121 0 0
rfemur -21.4518 -14.3054 15.3578
rtibia 72.0701 0 0
rfoot -8.00059 -25.7229 -0.0903353
rtoes 14.1657 0 0
lowerback 15.1231 1.33835 -4.87339
upperback -1.14715 1.16744 3.71155
thorax -9.91928 0.911415 6.5919
lowerneck 5.61892 -15.6993 -16.4694
upperneck -3.96456 -22.4618 23.4004
head 2.64058 -11.707 8.7823
lclavicle 5.48295e-14 3.02259e-14 -2.10526e-30
lhumerus -43.8096 -51.4858 121.319
lradius 94.1647 0 0
lwrist 41.1648 0 0
lhand -3.73415 42.8599 0.0733967
lfingers 7.12502 0 0
lthumb 22.0077 71.6128 0.0669457
rclavicle 5.48295e-14 3.02259e-14 -2.10526e-30
rhumerus 59.2489 34.7596 -17.0254
rradius 120.417 0 0
rwrist -18.132 0 0
rhand 9.08084 -26.5181 0.0693108
rfingers 7.12502 0 0
rthumb 34.2373 -53.0659 0.115015
1736
root -4.89739 15.541 26.9498 -172.957 -17.1409 -171.454
lfemur -51.1092 24.6269 -25.7771
ltibia 61.6477 0 0
lfoot -17.997 35.5435 -0.134491
ltoes 1.12873 0 0
rfemur -21.5422 -14.3245 15.3529
rtibia 71.8867 0 0
rfoot -7.99333 -25.6486 -0.0840419
rtoes 13.9797 0 0
lowerback 15.1212 1.35424 -4.86961
upperback -1.13931 1.18852 3.69714
thorax -9.909 0.920287 6.56887
lowerneck 5.58734 -15.6677 -16.4374
upperneck -3.92898 -22.413 23.342
head 2.6382 -11.6781 8.76464
lclavicle 5.41065e-14 3.0035e-14 -2.27394e-30
lhumerus -43.9055 -51.3191 121.198
lradius 94.2228 0 0
lwrist 41.0802 0 0
lhand -3.79215 42.7971 0.0779787
lfingers 7.12502 0 0
lthumb 21.9519 71.5552 0.0710047
rclavicle 5.41065e-14 3.0035e-14 -2.27394e-30
rhumerus 58.9765 34.6197 -17.2602
rradius 119.967 0 0
rwrist -18.0855 0 0
rhand 8.97228 -26.5728 0.0742812
rfingers 7.12502 0 0
rthumb 34.1334 -53.1353 0.122155
1737
root -4.81875 15.5407 26.9811 -172.972 -17.0244 -171.487
lfemur -50.8363 24.4376 -25.5697
ltibia 61.7037 0 0
lfoot -17.9778 35.451 -0.140652
ltoes 0.844134 0 0
rfemur -21.6491 -14.3418 15.3446
rtibia 71.6702 0 0
rfoot -7.9831 -25.5601 -0.0764931
rtoes 13.7618 0 0
lowerback 15.119 1.37218 -4.86604
upperback -1.12996 1.21217 3.68056
thorax -9.89678 0.930223 6.54295
lowerneck 5.55169 -15.6316 -16.4006
upperneck -3.88853 -22.3572 23.2745
head 2.63525 -11.645 8.74426
lclavicle 5.32683e-14 2.9814e-14 -2.46505e-30
lhumerus -44.0138 -51.1272 121.056
lradius 94.2899 0 0
lwrist 40.9845 0 0
lhand -3.85941 42.7249 0.0831441
lfingers 7.12502 0 0
lthumb 21.8871 71.489 0.0755775
rclavicle 5.32683e-14 2.9814e-14 -2.46505e-30
rhumerus 58.6635 34.4557 -17.5302
rradius 119.446 0 0
rwrist -18.036 0 0
rhand 8.84803 -26.6372 0.0798493
rfingers 7.12502 0 0
rthumb 34.0147 -53.2166 0.130161
1738
root -4.74011 15.5404 27.0125 -172.988 -16.8827 -171.524
lfemur -50.5238 24.2192 -25.3318
ltibia 61.7691 0 0
lfoot -17.9549 35.3436 -0.147794
ltoes 0.516569 0 0
rfemur -21.7718 -14.3638 15.3361
rtibia 71.4215 0 0
rfoot -7.97201 -25.4588 -0.0678952
rtoes 13.5109 0 0
lowerback 15.1165 1.39311 -4.86159
upperback -1.11926 1.23983 3.66136
thorax -9.88279 0.941861 6.51267
lowerneck 5.51012 -15.5897 -16.358
upperneck -3.84157 -22.2924 23.1966
head 2.63189 -11.6065 8.72067
lclavicle 5.22994e-14 2.95584e-14 -2.68254e-30
lhumerus -44.1408 -50.905 120.893
lradius 94.3676 0 0
lwrist 40.8728 0 0
lhand -3.93718 42.6412 0.0890377
lfingers 7.12502 0 0
lthumb 21.8123 71.4123 0.0807967
rclavicle 5.22994e-14 2.95584e-14 -2.68254e-30
rhumerus 58.3029 34.2649 -17.8407
rradius 118.843 0 0
rwrist -17.977 0 0
rhand 8.70372 -26.7112 0.0861385
rfingers 7.12502 0 0
rthumb 33.8767 -53.3102 0.139254
1739
root -4.66148 15.5401 27.0439 -173.005 -16.6914 -171.565
lfemur -50.1728 23.9726 -25.0611
ltibia 61.8468 0 0
lfoot -17.9258 35.218 -0.156189
ltoes 0.145082 0 0
rfemur -21.9095 -14.397 15.3308
rtibia 71.1414 0 0
rfoot -7.96215 -25.3462 -0.0584476
rtoes 13.2256 0 0
lowerback 15.1134 1.418 -4.85516
upperback -1.10743 1.27296 3.63902
thorax -9.86718 0.95584 6.47656
lowerneck 5.46082 -15.5404 -16.3083
upperneck -3.78652 -22.2163 23.1066
head 2.62833 -11.5615 8.69337
lclavicle 5.11838e-14 2.92637e-14 -2.92986e-30
lhumerus -44.2926 -50.6477 120.71
lradius 94.4572 0 0
lwrist 40.7405 0 0
lhand -4.0267 42.5439 0.0957915
lfingers 7.12502 0 0
lthumb 21.7262 71.3229 0.0867814
rclavicle 5.11838e-14 2.92637e-14 -2.92986e-30
rhumerus 57.8884 34.0443 -18.1967
rradius 118.149 0 0
rwrist -17.9019 0 0
rhand 8.535 -26.7949 0.0932507
rfingers 7.12502 0 0
rthumb 33.7153 -53.4166 0.149624
1740
root -4.58284 15.5398 27.0752 -173.02 -16.4264 -171.606
lfemur -49.7838 23.6985 -24.7553
ltibia 61.9397 0 0
lfoot -17.8882 35.0707 -0.166081
ltoes -0.270982 0 0
rfemur -22.0614 -14.4478 15.332
rtibia 70.8307 0 0
rfoot -7.95565 -25.224 -0.0483404
rtoes 12.9048 0 0
lowerback 15.1096 1.44778 -4.84568
upperback -1.09463 1.31297 3.61309
thorax -9.85011 0.972797 6.43312
lowerneck 5.40196 -15.4823 -16.2504
upperneck -3.72177 -22.1268 23.0033
head 2.62473 -11.5087 8.66187
lclavicle 4.99057e-14 2.89254e-14 -3.20983e-30
lhumerus -44.4755 -50.3502 120.509
lradius 94.5603 0 0
lwrist 40.583 0 0
lhand -4.12916 42.4309 0.103513
lfingers 7.12502 0 0
lthumb 21.6276 71.2191 0.0936366
rclavicle 4.99057e-14 2.89254e-14 -3.20983e-30
rhumerus 57.4135 33.7908 -18.6031
rradius 117.351 0 0
rwrist -17.804 0 0
rhand 8.33752 -26.8881 0.101264
rfingers 7.12502 0 0
rthumb 33.5264 -53.5364 0.161429
1741
root -4.5042 15.5395 27.1066 -173.032 -16.0634 -171.649
lfemur -49.3578 23.3975 -24.4122
ltibia 62.0508 0 0
lfoot -17.8395 34.8986 -0.177698
ltoes -0.732558 0 0
rfemur -22.2267 -14.5227 15.343
rtibia 70.4903 0 0
rfoot -7.95459 -25.0937 -0.0377532
rtoes 12.5472 0 0
lowerback 15.105 1.48342 -4.83206
upperback -1.08108 1.36132 3.58306
thorax -9.83176 0.993375 6.38088
lowerneck 5.33173 -15.4141 -16.1832
upperneck -3.6458 -22.0219 22.8852
head 2.62127 -11.4469 8.62568
lclavicle 4.84494e-14 2.85389e-14 -3.52454e-30
lhumerus -44.6955 -50.0076 120.292
lradius 94.6783 0 0
lwrist 40.3955 0 0
lhand -4.24584 42.3001 0.112292
lfingers 7.12502 0 0
lthumb 21.5153 71.0987 0.101441
rclavicle 4.84494e-14 2.85389e-14 -3.52454e-30
rhumerus 56.8724 33.5008 -19.0645
rradius 116.439 0 0
rwrist -17.6769 0 0
rhand 8.1069 -26.9909 0.110228
rfingers 7.12502 0 0
rthumb 33.3058 -53.6699 0.174789
1742
root -4.42557 15.5392 27.138 -173.039 -15.5783 -171.689
lfemur -48.8957 23.07 -24.0296
ltibia 62.1829 0 0
lfoot -17.7774 34.6982 -0.191231
ltoes -1.24049 0 0
rfemur -22.4047 -14.628 15.3673
rtibia 70.1208 0 0
rfoot -7.96108 -24.9568 -0.0268538
rtoes 12.1516 0 0
lowerback 15.0993 1.52586 -4.81321
upperback -1.06697 1.41944 3.54846
thorax -9.81228 1.01821 6.31837
lowerneck 5.24835 -15.3342 -16.1055
upperneck -3.55709 -21.8994 22.751
head 2.61812 -11.3749 8.58431
lclavicle 4.67991e-14 2.80999e-14 -3.87522e-30
lhumerus -44.9584 -49.6152 120.059
lradius 94.8126 0 0
lwrist 40.1733 0 0
lhand -4.37795 42.1496 0.122193
lfingers 7.12502 0 0
lthumb 21.3882 70.9599 0.110255
rclavicle 4.67991e-14 2.80999e-14 -3.87522e-30
rhumerus 56.2594 33.1706 -19.5848
rradius 115.403 0 0
rwrist -17.514 0 0
rhand 7.83881 -27.1032 0.120162
rfingers 7.12502 0 0
rthumb 33.0493 -53.8177 0.18978
1743
root -4.34693 15.5389 27.1693 -173.04 -14.9468 -171.728
lfemur -48.3986 22.7167 -23.6055
ltibia 62.339 0 0
lfoot -17.6993 34.4662 -0.20683
ltoes -1.79563 0 0
rfemur -22.5947 -14.7702 15.4084
rtibia 69.7234 0 0
rfoot -7.97725 -24.8149 -0.0157976
rtoes 11.7168 0 0
lowerback 15.0924 1.57605 -4.78805
upperback -1.0525 1.48877 3.50881
thorax -9.79186 1.04796 6.2441
lowerneck 5.15004 -15.2412 -16.0162
upperneck -3.45415 -21.7571 22.5994
head 2.61545 -11.2914 8.53727
lclavicle 4.49389e-14 2.76037e-14 -4.26208e-30
lhumerus -45.2701 -49.168 119.811
lradius 94.9648 0 0
lwrist 39.9117 0 0
lhand -4.52676 41.9771 0.133247
lfingers 7.12502 0 0
lthumb 21.245 70.8005 0.120111
rclavicle 4.49389e-14 2.76037e-14 -4.26208e-30
rhumerus 55.5694 32.7959 -20.1677
rradius 114.232 0 0
rwrist -17.3087 0 0
rhand 7.52886 -27.225 0.131052
rfingers 7.12502 0 0
rthumb 32.7526 -53.9802 0.206425
